M48
; DRILL file {KiCad 7.0.9} date Thursday, February 19, 2026 at 09:42:25 PM
; FORMAT={-:-/ absolute / metric / decimal}
; #@! TF.CreationDate,2026-02-19T21:42:25+01:00
; #@! TF.GenerationSoftware,Kicad,Pcbnew,7.0.9
; #@! TF.FileFunction,Plated,1,2,PTH
FMAT,2
METRIC
; #@! TA.AperFunction,Plated,PTH,ComponentDrill
T1C0.840
; #@! TA.AperFunction,Plated,PTH,ViaDrill
T2C1.000
; #@! TA.AperFunction,Plated,PTH,ComponentDrill
T3C1.000
; #@! TA.AperFunction,Plated,PTH,ComponentDrill
T4C1.100
; #@! TA.AperFunction,Plated,PTH,ComponentDrill
T5C1.300
; #@! TA.AperFunction,Plated,PTH,ComponentDrill
T6C1.520
%
G90
G05
T1
X57.81Y-48.53
X57.81Y-63.77
X60.35Y-48.53
X60.35Y-63.77
X62.89Y-48.53
X62.89Y-63.77
X65.43Y-48.53
X65.43Y-63.77
X67.97Y-48.53
X67.97Y-63.77
X70.51Y-48.53
X70.51Y-63.77
X73.05Y-48.53
X73.05Y-63.77
X75.59Y-48.53
X75.59Y-63.77
T2
X94.71Y-58.729
T3
X57.32Y-27.7
X57.32Y-43.1
X86.72Y-32.9
X86.72Y-37.9
T4
X93.73Y-36.42
X93.73Y-46.58
T5
X101.62Y-36.89
X101.62Y-59.39
T6
X93.73Y-29.2
X98.81Y-29.2
X103.89Y-29.2
T0
M30
