%TF.GenerationSoftware,KiCad,Pcbnew,7.0.9*%
%TF.CreationDate,2026-02-19T21:42:20+01:00*%
%TF.ProjectId,esp_home_heat,6573705f-686f-46d6-955f-686561742e6b,rev?*%
%TF.SameCoordinates,Original*%
%TF.FileFunction,Copper,L1,Top*%
%TF.FilePolarity,Positive*%
%FSLAX46Y46*%
G04 Gerber Fmt 4.6, Leading zero omitted, Abs format (unit mm)*
G04 Created by KiCad (PCBNEW 7.0.9) date 2026-02-19 21:42:20*
%MOMM*%
%LPD*%
G01*
G04 APERTURE LIST*
G04 Aperture macros list*
%AMRoundRect*
0 Rectangle with rounded corners*
0 $1 Rounding radius*
0 $2 $3 $4 $5 $6 $7 $8 $9 X,Y pos of 4 corners*
0 Add a 4 corners polygon primitive as box body*
4,1,4,$2,$3,$4,$5,$6,$7,$8,$9,$2,$3,0*
0 Add four circle primitives for the rounded corners*
1,1,$1+$1,$2,$3*
1,1,$1+$1,$4,$5*
1,1,$1+$1,$6,$7*
1,1,$1+$1,$8,$9*
0 Add four rect primitives between the rounded corners*
20,1,$1+$1,$2,$3,$4,$5,0*
20,1,$1+$1,$4,$5,$6,$7,0*
20,1,$1+$1,$6,$7,$8,$9,0*
20,1,$1+$1,$8,$9,$2,$3,0*%
G04 Aperture macros list end*
%TA.AperFunction,SMDPad,CuDef*%
%ADD10R,2.000000X1.170000*%
%TD*%
%TA.AperFunction,SMDPad,CuDef*%
%ADD11R,2.000000X1.520000*%
%TD*%
%TA.AperFunction,SMDPad,CuDef*%
%ADD12RoundRect,0.250000X-1.450000X0.312500X-1.450000X-0.312500X1.450000X-0.312500X1.450000X0.312500X0*%
%TD*%
%TA.AperFunction,ComponentPad*%
%ADD13R,1.508000X1.508000*%
%TD*%
%TA.AperFunction,ComponentPad*%
%ADD14C,1.508000*%
%TD*%
%TA.AperFunction,ComponentPad*%
%ADD15C,3.000000*%
%TD*%
%TA.AperFunction,ComponentPad*%
%ADD16C,1.348000*%
%TD*%
%TA.AperFunction,ComponentPad*%
%ADD17R,2.200000X2.200000*%
%TD*%
%TA.AperFunction,ComponentPad*%
%ADD18O,2.200000X2.200000*%
%TD*%
%TA.AperFunction,ComponentPad*%
%ADD19R,3.000000X3.000000*%
%TD*%
%TA.AperFunction,ViaPad*%
%ADD20C,2.000000*%
%TD*%
%TA.AperFunction,Conductor*%
%ADD21C,1.000000*%
%TD*%
%TA.AperFunction,Conductor*%
%ADD22C,0.250000*%
%TD*%
G04 APERTURE END LIST*
D10*
%TO.P,IC1,1,A1*%
%TO.N,Net-(IC1-A1)*%
X82180000Y-56230000D03*
D11*
%TO.P,IC1,2,K1*%
%TO.N,GND*%
X82180000Y-58770000D03*
%TO.P,IC1,3,A2*%
%TO.N,unconnected-(IC1-A2-Pad3)*%
X82180000Y-61310000D03*
D10*
%TO.P,IC1,4,K2*%
%TO.N,unconnected-(IC1-K2-Pad4)*%
X82180000Y-63850000D03*
%TO.P,IC1,5,D1*%
%TO.N,unconnected-(IC1-D1-Pad5)*%
X90780000Y-63850000D03*
D11*
%TO.P,IC1,6,D2*%
%TO.N,unconnected-(IC1-D2-Pad6)*%
X90780000Y-61310000D03*
%TO.P,IC1,7,D3*%
%TO.N,Net-(D1-A)*%
X90780000Y-58770000D03*
D10*
%TO.P,IC1,8,D4*%
%TO.N,L_FUSED*%
X90780000Y-56230000D03*
%TD*%
D12*
%TO.P,R1,1*%
%TO.N,Net-(U1-GPIO7)*%
X82920000Y-48282500D03*
%TO.P,R1,2*%
%TO.N,Net-(IC1-A1)*%
X82920000Y-52557500D03*
%TD*%
D13*
%TO.P,PS1,1,AC1*%
%TO.N,L_FUSED*%
X86720000Y-37900000D03*
D14*
%TO.P,PS1,2,AC2*%
%TO.N,N*%
X86720000Y-32900000D03*
%TO.P,PS1,3,-VO*%
%TO.N,GND*%
X57320000Y-43100000D03*
%TO.P,PS1,4,+VO*%
%TO.N,+5V*%
X57320000Y-27700000D03*
%TD*%
D15*
%TO.P,F1,1*%
%TO.N,L_FUSED*%
X101620000Y-59390000D03*
%TO.P,F1,2*%
%TO.N,L_IN*%
X101620000Y-36890000D03*
%TD*%
D16*
%TO.P,U1,0,GPIO0*%
%TO.N,unconnected-(U1-GPIO0-Pad0)*%
X75590000Y-48530000D03*
%TO.P,U1,1,GPIO1*%
%TO.N,unconnected-(U1-GPIO1-Pad1)*%
X73050000Y-48530000D03*
%TO.P,U1,2,GPIO2*%
%TO.N,unconnected-(U1-GPIO2-Pad2)*%
X70510000Y-48530000D03*
%TO.P,U1,3,GPIO3*%
%TO.N,unconnected-(U1-GPIO3-Pad3)*%
X67970000Y-48530000D03*
%TO.P,U1,3.3,3V3*%
%TO.N,unconnected-(U1-3V3-Pad3.3)*%
X62890000Y-48530000D03*
%TO.P,U1,4,GPIO4*%
%TO.N,unconnected-(U1-GPIO4-Pad4)*%
X65430000Y-48530000D03*
%TO.P,U1,5,GPIO5*%
%TO.N,unconnected-(U1-GPIO5-Pad5)*%
X57810000Y-63770000D03*
%TO.P,U1,5V,5V*%
%TO.N,+5V*%
X57810000Y-48530000D03*
%TO.P,U1,6,GPIO6*%
%TO.N,unconnected-(U1-GPIO6-Pad6)*%
X60350000Y-63770000D03*
%TO.P,U1,7,GPIO7*%
%TO.N,Net-(U1-GPIO7)*%
X62890000Y-63770000D03*
%TO.P,U1,8,GPIO8*%
%TO.N,unconnected-(U1-GPIO8-Pad8)*%
X65430000Y-63770000D03*
%TO.P,U1,9,GPIO9*%
%TO.N,unconnected-(U1-GPIO9-Pad9)*%
X67970000Y-63770000D03*
%TO.P,U1,10,GPIO10*%
%TO.N,unconnected-(U1-GPIO10-Pad10)*%
X70510000Y-63770000D03*
%TO.P,U1,20,GPIO20*%
%TO.N,unconnected-(U1-GPIO20-Pad20)*%
X73050000Y-63770000D03*
%TO.P,U1,21,GPIO21*%
%TO.N,unconnected-(U1-GPIO21-Pad21)*%
X75590000Y-63770000D03*
%TO.P,U1,G,GND*%
%TO.N,GND*%
X60350000Y-48530000D03*
%TD*%
D17*
%TO.P,D1,1,K*%
%TO.N,CMD*%
X93730000Y-36420000D03*
D18*
%TO.P,D1,2,A*%
%TO.N,Net-(D1-A)*%
X93730000Y-46580000D03*
%TD*%
D19*
%TO.P,J1,1,Pin_1*%
%TO.N,CMD*%
X93730000Y-29200000D03*
D15*
%TO.P,J1,2,Pin_2*%
%TO.N,N*%
X98810000Y-29200000D03*
%TO.P,J1,3,Pin_3*%
%TO.N,L_IN*%
X103890000Y-29200000D03*
%TD*%
D20*
%TO.N,Net-(D1-A)*%
X94710000Y-58729500D03*
%TD*%
D21*
%TO.N,Net-(D1-A)*%
X94669500Y-58770000D02*
X90780000Y-58770000D01*
X94710000Y-58729500D02*
X94669500Y-58770000D01*
%TO.N,L_FUSED*%
X86720000Y-41180000D02*
X90630000Y-45090000D01*
X90780000Y-56230000D02*
X98460000Y-56230000D01*
X90630000Y-45090000D02*
X90630000Y-45293044D01*
X90630000Y-56080000D02*
X90780000Y-56230000D01*
X98460000Y-56230000D02*
X101620000Y-59390000D01*
X90620000Y-47456956D02*
X90630000Y-47466956D01*
X90630000Y-45293044D02*
X90620000Y-45303044D01*
X90620000Y-45303044D02*
X90620000Y-47456956D01*
X90630000Y-47466956D02*
X90630000Y-56080000D01*
X86720000Y-37900000D02*
X86720000Y-41180000D01*
D22*
X87000000Y-37360000D02*
X87000000Y-37600000D01*
D21*
%TO.N,L_IN*%
X101620000Y-36890000D02*
X101620000Y-31470000D01*
X101620000Y-31470000D02*
X103890000Y-29200000D01*
D22*
%TO.N,Net-(IC1-A1)*%
X82180000Y-53297500D02*
X82920000Y-52557500D01*
X82180000Y-56230000D02*
X82180000Y-53297500D01*
X82210000Y-56200000D02*
X82180000Y-56230000D01*
%TO.N,GND*%
X57320000Y-45500000D02*
X60350000Y-48530000D01*
X57320000Y-43100000D02*
X57320000Y-45500000D01*
D21*
%TO.N,N*%
X98810000Y-31321320D02*
X98810000Y-29200000D01*
X86720000Y-32900000D02*
X97231320Y-32900000D01*
X97231320Y-32900000D02*
X98810000Y-31321320D01*
D22*
%TO.N,+5V*%
X55500000Y-46220000D02*
X55500000Y-29520000D01*
X55500000Y-29520000D02*
X57320000Y-27700000D01*
X57810000Y-48530000D02*
X55500000Y-46220000D01*
%TO.N,Net-(U1-GPIO7)*%
X78377500Y-48282500D02*
X84040000Y-48282500D01*
X84040000Y-48282500D02*
X84120000Y-48362500D01*
X62890000Y-63770000D02*
X78377500Y-48282500D01*
%TD*%
%TA.AperFunction,Conductor*%
%TO.N,GND*%
G36*
X82224738Y-25049704D02*
G01*
X82270513Y-25102491D01*
X82281725Y-25152295D01*
X82591218Y-47093751D01*
X82572481Y-47161062D01*
X82520327Y-47207557D01*
X82467230Y-47219500D01*
X81419998Y-47219500D01*
X81419981Y-47219501D01*
X81317203Y-47230000D01*
X81317200Y-47230001D01*
X81150668Y-47285185D01*
X81150663Y-47285187D01*
X81001342Y-47377289D01*
X80877289Y-47501342D01*
X80817611Y-47598097D01*
X80765663Y-47644821D01*
X80712072Y-47657000D01*
X78460243Y-47657000D01*
X78444622Y-47655275D01*
X78444595Y-47655561D01*
X78436833Y-47654826D01*
X78367672Y-47657000D01*
X78338149Y-47657000D01*
X78331278Y-47657867D01*
X78325459Y-47658325D01*
X78278874Y-47659789D01*
X78278868Y-47659790D01*
X78259626Y-47665380D01*
X78240587Y-47669323D01*
X78220717Y-47671834D01*
X78220703Y-47671837D01*
X78177383Y-47688988D01*
X78171858Y-47690880D01*
X78127113Y-47703880D01*
X78127110Y-47703881D01*
X78109866Y-47714079D01*
X78092405Y-47722633D01*
X78073774Y-47730010D01*
X78073762Y-47730017D01*
X78036070Y-47757402D01*
X78031187Y-47760609D01*
X77991080Y-47784329D01*
X77976914Y-47798495D01*
X77962124Y-47811127D01*
X77945914Y-47822904D01*
X77945911Y-47822907D01*
X77916210Y-47858809D01*
X77912277Y-47863131D01*
X76963771Y-48811637D01*
X76902448Y-48845122D01*
X76832756Y-48840138D01*
X76776823Y-48798266D01*
X76752406Y-48732802D01*
X76752619Y-48712514D01*
X76754825Y-48688714D01*
X76769532Y-48530000D01*
X76749448Y-48313262D01*
X76689881Y-48103904D01*
X76592858Y-47909056D01*
X76461685Y-47735354D01*
X76461682Y-47735351D01*
X76461679Y-47735348D01*
X76300828Y-47588714D01*
X76300827Y-47588713D01*
X76115763Y-47474126D01*
X75912794Y-47395496D01*
X75698833Y-47355500D01*
X75481167Y-47355500D01*
X75267206Y-47395496D01*
X75267204Y-47395496D01*
X75267202Y-47395497D01*
X75064239Y-47474125D01*
X75064238Y-47474125D01*
X74879171Y-47588714D01*
X74718320Y-47735348D01*
X74718317Y-47735351D01*
X74587142Y-47909055D01*
X74490120Y-48103900D01*
X74490119Y-48103904D01*
X74439265Y-48282635D01*
X74401987Y-48341727D01*
X74338678Y-48371285D01*
X74269438Y-48361923D01*
X74216252Y-48316614D01*
X74200734Y-48282637D01*
X74149881Y-48103904D01*
X74052858Y-47909056D01*
X73921685Y-47735354D01*
X73921682Y-47735351D01*
X73921679Y-47735348D01*
X73760828Y-47588714D01*
X73760827Y-47588713D01*
X73575763Y-47474126D01*
X73372794Y-47395496D01*
X73158833Y-47355500D01*
X72941167Y-47355500D01*
X72727206Y-47395496D01*
X72727204Y-47395496D01*
X72727202Y-47395497D01*
X72524239Y-47474125D01*
X72524238Y-47474125D01*
X72339171Y-47588714D01*
X72178320Y-47735348D01*
X72178317Y-47735351D01*
X72047142Y-47909055D01*
X71950120Y-48103900D01*
X71950119Y-48103904D01*
X71899265Y-48282635D01*
X71861987Y-48341727D01*
X71798678Y-48371285D01*
X71729438Y-48361923D01*
X71676252Y-48316614D01*
X71660734Y-48282637D01*
X71609881Y-48103904D01*
X71512858Y-47909056D01*
X71381685Y-47735354D01*
X71381682Y-47735351D01*
X71381679Y-47735348D01*
X71220828Y-47588714D01*
X71220827Y-47588713D01*
X71035763Y-47474126D01*
X70832794Y-47395496D01*
X70618833Y-47355500D01*
X70401167Y-47355500D01*
X70187206Y-47395496D01*
X70187204Y-47395496D01*
X70187202Y-47395497D01*
X69984239Y-47474125D01*
X69984238Y-47474125D01*
X69799171Y-47588714D01*
X69638320Y-47735348D01*
X69638317Y-47735351D01*
X69507142Y-47909055D01*
X69410120Y-48103900D01*
X69410119Y-48103904D01*
X69359265Y-48282635D01*
X69321987Y-48341727D01*
X69258678Y-48371285D01*
X69189438Y-48361923D01*
X69136252Y-48316614D01*
X69120734Y-48282637D01*
X69069881Y-48103904D01*
X68972858Y-47909056D01*
X68841685Y-47735354D01*
X68841682Y-47735351D01*
X68841679Y-47735348D01*
X68680828Y-47588714D01*
X68680827Y-47588713D01*
X68495763Y-47474126D01*
X68292794Y-47395496D01*
X68078833Y-47355500D01*
X67861167Y-47355500D01*
X67647206Y-47395496D01*
X67647204Y-47395496D01*
X67647202Y-47395497D01*
X67444239Y-47474125D01*
X67444238Y-47474125D01*
X67259171Y-47588714D01*
X67098320Y-47735348D01*
X67098317Y-47735351D01*
X66967142Y-47909055D01*
X66870120Y-48103900D01*
X66870119Y-48103904D01*
X66819265Y-48282635D01*
X66781987Y-48341727D01*
X66718678Y-48371285D01*
X66649438Y-48361923D01*
X66596252Y-48316614D01*
X66580734Y-48282637D01*
X66529881Y-48103904D01*
X66432858Y-47909056D01*
X66301685Y-47735354D01*
X66301682Y-47735351D01*
X66301679Y-47735348D01*
X66140828Y-47588714D01*
X66140827Y-47588713D01*
X65955763Y-47474126D01*
X65752794Y-47395496D01*
X65538833Y-47355500D01*
X65321167Y-47355500D01*
X65107206Y-47395496D01*
X65107204Y-47395496D01*
X65107202Y-47395497D01*
X64904239Y-47474125D01*
X64904238Y-47474125D01*
X64719171Y-47588714D01*
X64558320Y-47735348D01*
X64558317Y-47735351D01*
X64427142Y-47909055D01*
X64330120Y-48103900D01*
X64330119Y-48103904D01*
X64279265Y-48282635D01*
X64241987Y-48341727D01*
X64178678Y-48371285D01*
X64109438Y-48361923D01*
X64056252Y-48316614D01*
X64040734Y-48282637D01*
X63989881Y-48103904D01*
X63892858Y-47909056D01*
X63761685Y-47735354D01*
X63761682Y-47735351D01*
X63761679Y-47735348D01*
X63600828Y-47588714D01*
X63600827Y-47588713D01*
X63415763Y-47474126D01*
X63212794Y-47395496D01*
X62998833Y-47355500D01*
X62781167Y-47355500D01*
X62567206Y-47395496D01*
X62567204Y-47395496D01*
X62567202Y-47395497D01*
X62364239Y-47474125D01*
X62364238Y-47474125D01*
X62179171Y-47588714D01*
X62018320Y-47735348D01*
X62018317Y-47735351D01*
X61887142Y-47909055D01*
X61790120Y-48103900D01*
X61790119Y-48103904D01*
X61739950Y-48280233D01*
X61730551Y-48313266D01*
X61710468Y-48529999D01*
X61710468Y-48530000D01*
X61730551Y-48746733D01*
X61730551Y-48746735D01*
X61730552Y-48746738D01*
X61786768Y-48944319D01*
X61790120Y-48956099D01*
X61843678Y-49063657D01*
X61887142Y-49150944D01*
X61984630Y-49280040D01*
X62018317Y-49324648D01*
X62018320Y-49324651D01*
X62133213Y-49429389D01*
X62179173Y-49471287D01*
X62364237Y-49585874D01*
X62567206Y-49664504D01*
X62781167Y-49704500D01*
X62781169Y-49704500D01*
X62998831Y-49704500D01*
X62998833Y-49704500D01*
X63212794Y-49664504D01*
X63415763Y-49585874D01*
X63600827Y-49471287D01*
X63761685Y-49324646D01*
X63892858Y-49150944D01*
X63989881Y-48956096D01*
X64040734Y-48777364D01*
X64078012Y-48718272D01*
X64141322Y-48688714D01*
X64210561Y-48698076D01*
X64263748Y-48743385D01*
X64279265Y-48777362D01*
X64306456Y-48872931D01*
X64330119Y-48956098D01*
X64383678Y-49063657D01*
X64427142Y-49150944D01*
X64524630Y-49280040D01*
X64558317Y-49324648D01*
X64558320Y-49324651D01*
X64673213Y-49429389D01*
X64719173Y-49471287D01*
X64904237Y-49585874D01*
X65107206Y-49664504D01*
X65321167Y-49704500D01*
X65321169Y-49704500D01*
X65538831Y-49704500D01*
X65538833Y-49704500D01*
X65752794Y-49664504D01*
X65955763Y-49585874D01*
X66140827Y-49471287D01*
X66301685Y-49324646D01*
X66432858Y-49150944D01*
X66529881Y-48956096D01*
X66580734Y-48777364D01*
X66618012Y-48718272D01*
X66681322Y-48688714D01*
X66750561Y-48698076D01*
X66803748Y-48743385D01*
X66819265Y-48777362D01*
X66846456Y-48872931D01*
X66870119Y-48956098D01*
X66923678Y-49063657D01*
X66967142Y-49150944D01*
X67064630Y-49280040D01*
X67098317Y-49324648D01*
X67098320Y-49324651D01*
X67213213Y-49429389D01*
X67259173Y-49471287D01*
X67444237Y-49585874D01*
X67647206Y-49664504D01*
X67861167Y-49704500D01*
X67861169Y-49704500D01*
X68078831Y-49704500D01*
X68078833Y-49704500D01*
X68292794Y-49664504D01*
X68495763Y-49585874D01*
X68680827Y-49471287D01*
X68841685Y-49324646D01*
X68972858Y-49150944D01*
X69069881Y-48956096D01*
X69120734Y-48777364D01*
X69158012Y-48718272D01*
X69221322Y-48688714D01*
X69290561Y-48698076D01*
X69343748Y-48743385D01*
X69359265Y-48777362D01*
X69386456Y-48872931D01*
X69410119Y-48956098D01*
X69463678Y-49063657D01*
X69507142Y-49150944D01*
X69604630Y-49280040D01*
X69638317Y-49324648D01*
X69638320Y-49324651D01*
X69753213Y-49429389D01*
X69799173Y-49471287D01*
X69984237Y-49585874D01*
X70187206Y-49664504D01*
X70401167Y-49704500D01*
X70401169Y-49704500D01*
X70618831Y-49704500D01*
X70618833Y-49704500D01*
X70832794Y-49664504D01*
X71035763Y-49585874D01*
X71220827Y-49471287D01*
X71381685Y-49324646D01*
X71512858Y-49150944D01*
X71609881Y-48956096D01*
X71660734Y-48777364D01*
X71698012Y-48718272D01*
X71761322Y-48688714D01*
X71830561Y-48698076D01*
X71883748Y-48743385D01*
X71899265Y-48777362D01*
X71926456Y-48872931D01*
X71950119Y-48956098D01*
X72003678Y-49063657D01*
X72047142Y-49150944D01*
X72144630Y-49280040D01*
X72178317Y-49324648D01*
X72178320Y-49324651D01*
X72293213Y-49429389D01*
X72339173Y-49471287D01*
X72524237Y-49585874D01*
X72727206Y-49664504D01*
X72941167Y-49704500D01*
X72941169Y-49704500D01*
X73158831Y-49704500D01*
X73158833Y-49704500D01*
X73372794Y-49664504D01*
X73575763Y-49585874D01*
X73760827Y-49471287D01*
X73921685Y-49324646D01*
X74052858Y-49150944D01*
X74149881Y-48956096D01*
X74200734Y-48777364D01*
X74238012Y-48718272D01*
X74301322Y-48688714D01*
X74370561Y-48698076D01*
X74423748Y-48743385D01*
X74439265Y-48777362D01*
X74466456Y-48872931D01*
X74490119Y-48956098D01*
X74543678Y-49063657D01*
X74587142Y-49150944D01*
X74684630Y-49280040D01*
X74718317Y-49324648D01*
X74718320Y-49324651D01*
X74833213Y-49429389D01*
X74879173Y-49471287D01*
X75064237Y-49585874D01*
X75267206Y-49664504D01*
X75481167Y-49704500D01*
X75481169Y-49704500D01*
X75698831Y-49704500D01*
X75698833Y-49704500D01*
X75762839Y-49692535D01*
X75832352Y-49699566D01*
X75887030Y-49743063D01*
X75909513Y-49809217D01*
X75892660Y-49877024D01*
X75873303Y-49902105D01*
X63197608Y-62577799D01*
X63136285Y-62611284D01*
X63087144Y-62612007D01*
X62998833Y-62595500D01*
X62781167Y-62595500D01*
X62567206Y-62635496D01*
X62567204Y-62635496D01*
X62567202Y-62635497D01*
X62364239Y-62714125D01*
X62364238Y-62714125D01*
X62179171Y-62828714D01*
X62018320Y-62975348D01*
X62018317Y-62975351D01*
X61887142Y-63149055D01*
X61790120Y-63343900D01*
X61790119Y-63343904D01*
X61739265Y-63522635D01*
X61701987Y-63581727D01*
X61638678Y-63611285D01*
X61569438Y-63601923D01*
X61516252Y-63556614D01*
X61500734Y-63522637D01*
X61449881Y-63343904D01*
X61352858Y-63149056D01*
X61221685Y-62975354D01*
X61221682Y-62975351D01*
X61221679Y-62975348D01*
X61060828Y-62828714D01*
X61060827Y-62828713D01*
X60875763Y-62714126D01*
X60672794Y-62635496D01*
X60458833Y-62595500D01*
X60241167Y-62595500D01*
X60027206Y-62635496D01*
X60027204Y-62635496D01*
X60027202Y-62635497D01*
X59824239Y-62714125D01*
X59824238Y-62714125D01*
X59639171Y-62828714D01*
X59478320Y-62975348D01*
X59478317Y-62975351D01*
X59347142Y-63149055D01*
X59250120Y-63343900D01*
X59250119Y-63343904D01*
X59199265Y-63522635D01*
X59161987Y-63581727D01*
X59098678Y-63611285D01*
X59029438Y-63601923D01*
X58976252Y-63556614D01*
X58960734Y-63522637D01*
X58909881Y-63343904D01*
X58812858Y-63149056D01*
X58681685Y-62975354D01*
X58681682Y-62975351D01*
X58681679Y-62975348D01*
X58520828Y-62828714D01*
X58520827Y-62828713D01*
X58335763Y-62714126D01*
X58132794Y-62635496D01*
X57918833Y-62595500D01*
X57701167Y-62595500D01*
X57487206Y-62635496D01*
X57487204Y-62635496D01*
X57487202Y-62635497D01*
X57284239Y-62714125D01*
X57284238Y-62714125D01*
X57099171Y-62828714D01*
X56938320Y-62975348D01*
X56938317Y-62975351D01*
X56807142Y-63149055D01*
X56710120Y-63343900D01*
X56650551Y-63553266D01*
X56630468Y-63769999D01*
X56630468Y-63770000D01*
X56650551Y-63986733D01*
X56650551Y-63986735D01*
X56650552Y-63986738D01*
X56710119Y-64196096D01*
X56807142Y-64390944D01*
X56938315Y-64564646D01*
X57099173Y-64711287D01*
X57284237Y-64825874D01*
X57487206Y-64904504D01*
X57701167Y-64944500D01*
X57701169Y-64944500D01*
X57918831Y-64944500D01*
X57918833Y-64944500D01*
X58132794Y-64904504D01*
X58335763Y-64825874D01*
X58520827Y-64711287D01*
X58681685Y-64564646D01*
X58812858Y-64390944D01*
X58909881Y-64196096D01*
X58960734Y-64017364D01*
X58998012Y-63958272D01*
X59061322Y-63928714D01*
X59130561Y-63938076D01*
X59183748Y-63983385D01*
X59199265Y-64017362D01*
X59226456Y-64112931D01*
X59250119Y-64196098D01*
X59347142Y-64390944D01*
X59478315Y-64564646D01*
X59639173Y-64711287D01*
X59824237Y-64825874D01*
X60027206Y-64904504D01*
X60241167Y-64944500D01*
X60241169Y-64944500D01*
X60458831Y-64944500D01*
X60458833Y-64944500D01*
X60672794Y-64904504D01*
X60875763Y-64825874D01*
X61060827Y-64711287D01*
X61221685Y-64564646D01*
X61352858Y-64390944D01*
X61449881Y-64196096D01*
X61500734Y-64017364D01*
X61538012Y-63958272D01*
X61601322Y-63928714D01*
X61670561Y-63938076D01*
X61723748Y-63983385D01*
X61739265Y-64017362D01*
X61766456Y-64112931D01*
X61790119Y-64196098D01*
X61887142Y-64390944D01*
X62018315Y-64564646D01*
X62179173Y-64711287D01*
X62364237Y-64825874D01*
X62567206Y-64904504D01*
X62781167Y-64944500D01*
X62781169Y-64944500D01*
X62998831Y-64944500D01*
X62998833Y-64944500D01*
X63212794Y-64904504D01*
X63415763Y-64825874D01*
X63600827Y-64711287D01*
X63761685Y-64564646D01*
X63892858Y-64390944D01*
X63989881Y-64196096D01*
X64040734Y-64017364D01*
X64078012Y-63958272D01*
X64141322Y-63928714D01*
X64210561Y-63938076D01*
X64263748Y-63983385D01*
X64279265Y-64017362D01*
X64306456Y-64112931D01*
X64330119Y-64196098D01*
X64427142Y-64390944D01*
X64558315Y-64564646D01*
X64719173Y-64711287D01*
X64904237Y-64825874D01*
X65107206Y-64904504D01*
X65321167Y-64944500D01*
X65321169Y-64944500D01*
X65538831Y-64944500D01*
X65538833Y-64944500D01*
X65752794Y-64904504D01*
X65955763Y-64825874D01*
X66140827Y-64711287D01*
X66301685Y-64564646D01*
X66432858Y-64390944D01*
X66529881Y-64196096D01*
X66580734Y-64017364D01*
X66618012Y-63958272D01*
X66681322Y-63928714D01*
X66750561Y-63938076D01*
X66803748Y-63983385D01*
X66819265Y-64017362D01*
X66846456Y-64112931D01*
X66870119Y-64196098D01*
X66967142Y-64390944D01*
X67098315Y-64564646D01*
X67259173Y-64711287D01*
X67444237Y-64825874D01*
X67647206Y-64904504D01*
X67861167Y-64944500D01*
X67861169Y-64944500D01*
X68078831Y-64944500D01*
X68078833Y-64944500D01*
X68292794Y-64904504D01*
X68495763Y-64825874D01*
X68680827Y-64711287D01*
X68841685Y-64564646D01*
X68972858Y-64390944D01*
X69069881Y-64196096D01*
X69120734Y-64017364D01*
X69158012Y-63958272D01*
X69221322Y-63928714D01*
X69290561Y-63938076D01*
X69343748Y-63983385D01*
X69359265Y-64017362D01*
X69386456Y-64112931D01*
X69410119Y-64196098D01*
X69507142Y-64390944D01*
X69638315Y-64564646D01*
X69799173Y-64711287D01*
X69984237Y-64825874D01*
X70187206Y-64904504D01*
X70401167Y-64944500D01*
X70401169Y-64944500D01*
X70618831Y-64944500D01*
X70618833Y-64944500D01*
X70832794Y-64904504D01*
X71035763Y-64825874D01*
X71220827Y-64711287D01*
X71381685Y-64564646D01*
X71512858Y-64390944D01*
X71609881Y-64196096D01*
X71660734Y-64017364D01*
X71698012Y-63958272D01*
X71761322Y-63928714D01*
X71830561Y-63938076D01*
X71883748Y-63983385D01*
X71899265Y-64017362D01*
X71926456Y-64112931D01*
X71950119Y-64196098D01*
X72047142Y-64390944D01*
X72178315Y-64564646D01*
X72339173Y-64711287D01*
X72524237Y-64825874D01*
X72727206Y-64904504D01*
X72941167Y-64944500D01*
X72941169Y-64944500D01*
X73158831Y-64944500D01*
X73158833Y-64944500D01*
X73372794Y-64904504D01*
X73575763Y-64825874D01*
X73760827Y-64711287D01*
X73921685Y-64564646D01*
X74052858Y-64390944D01*
X74149881Y-64196096D01*
X74200734Y-64017364D01*
X74238012Y-63958272D01*
X74301322Y-63928714D01*
X74370561Y-63938076D01*
X74423748Y-63983385D01*
X74439265Y-64017362D01*
X74466456Y-64112931D01*
X74490119Y-64196098D01*
X74587142Y-64390944D01*
X74718315Y-64564646D01*
X74879173Y-64711287D01*
X75064237Y-64825874D01*
X75267206Y-64904504D01*
X75481167Y-64944500D01*
X75481169Y-64944500D01*
X75698831Y-64944500D01*
X75698833Y-64944500D01*
X75912794Y-64904504D01*
X76115763Y-64825874D01*
X76300827Y-64711287D01*
X76461685Y-64564646D01*
X76592858Y-64390944D01*
X76689881Y-64196096D01*
X76749448Y-63986738D01*
X76769532Y-63770000D01*
X76749448Y-63553262D01*
X76689881Y-63343904D01*
X76592858Y-63149056D01*
X76461685Y-62975354D01*
X76461682Y-62975351D01*
X76461679Y-62975348D01*
X76300828Y-62828714D01*
X76300827Y-62828713D01*
X76115763Y-62714126D01*
X75912794Y-62635496D01*
X75698833Y-62595500D01*
X75481167Y-62595500D01*
X75267206Y-62635496D01*
X75267204Y-62635496D01*
X75267202Y-62635497D01*
X75064239Y-62714125D01*
X75064238Y-62714125D01*
X74879171Y-62828714D01*
X74718320Y-62975348D01*
X74718317Y-62975351D01*
X74587142Y-63149055D01*
X74490120Y-63343900D01*
X74490119Y-63343904D01*
X74439265Y-63522635D01*
X74401987Y-63581727D01*
X74338678Y-63611285D01*
X74269438Y-63601923D01*
X74216252Y-63556614D01*
X74200734Y-63522637D01*
X74149881Y-63343904D01*
X74052858Y-63149056D01*
X73921685Y-62975354D01*
X73921682Y-62975351D01*
X73921679Y-62975348D01*
X73760828Y-62828714D01*
X73760827Y-62828713D01*
X73575763Y-62714126D01*
X73372794Y-62635496D01*
X73158833Y-62595500D01*
X72941167Y-62595500D01*
X72727206Y-62635496D01*
X72727204Y-62635496D01*
X72727202Y-62635497D01*
X72524239Y-62714125D01*
X72524238Y-62714125D01*
X72339171Y-62828714D01*
X72178320Y-62975348D01*
X72178317Y-62975351D01*
X72047142Y-63149055D01*
X71950120Y-63343900D01*
X71950119Y-63343904D01*
X71899265Y-63522635D01*
X71861987Y-63581727D01*
X71798678Y-63611285D01*
X71729438Y-63601923D01*
X71676252Y-63556614D01*
X71660734Y-63522637D01*
X71609881Y-63343904D01*
X71512858Y-63149056D01*
X71381685Y-62975354D01*
X71381682Y-62975351D01*
X71381679Y-62975348D01*
X71220828Y-62828714D01*
X71220827Y-62828713D01*
X71035763Y-62714126D01*
X70832794Y-62635496D01*
X70618833Y-62595500D01*
X70401167Y-62595500D01*
X70187206Y-62635496D01*
X70187204Y-62635496D01*
X70187202Y-62635497D01*
X69984239Y-62714125D01*
X69984238Y-62714125D01*
X69799171Y-62828714D01*
X69638320Y-62975348D01*
X69638317Y-62975351D01*
X69507142Y-63149055D01*
X69410120Y-63343900D01*
X69410119Y-63343904D01*
X69359265Y-63522635D01*
X69321987Y-63581727D01*
X69258678Y-63611285D01*
X69189438Y-63601923D01*
X69136252Y-63556614D01*
X69120734Y-63522637D01*
X69069881Y-63343904D01*
X68972858Y-63149056D01*
X68841685Y-62975354D01*
X68841682Y-62975351D01*
X68841679Y-62975348D01*
X68680828Y-62828714D01*
X68680827Y-62828713D01*
X68495763Y-62714126D01*
X68292794Y-62635496D01*
X68078833Y-62595500D01*
X67861167Y-62595500D01*
X67647206Y-62635496D01*
X67647204Y-62635496D01*
X67647202Y-62635497D01*
X67444239Y-62714125D01*
X67444238Y-62714125D01*
X67259171Y-62828714D01*
X67098320Y-62975348D01*
X67098317Y-62975351D01*
X66967142Y-63149055D01*
X66870120Y-63343900D01*
X66870119Y-63343904D01*
X66819265Y-63522635D01*
X66781987Y-63581727D01*
X66718678Y-63611285D01*
X66649438Y-63601923D01*
X66596252Y-63556614D01*
X66580734Y-63522637D01*
X66529881Y-63343904D01*
X66432858Y-63149056D01*
X66301685Y-62975354D01*
X66301682Y-62975351D01*
X66301679Y-62975348D01*
X66140828Y-62828714D01*
X66140827Y-62828713D01*
X65955763Y-62714126D01*
X65752794Y-62635496D01*
X65538833Y-62595500D01*
X65321167Y-62595500D01*
X65295717Y-62600257D01*
X65257158Y-62607465D01*
X65187643Y-62600433D01*
X65132965Y-62556936D01*
X65110483Y-62490782D01*
X65127336Y-62422975D01*
X65146689Y-62397899D01*
X74756971Y-52787617D01*
X74818292Y-52754134D01*
X74887984Y-52759118D01*
X74943917Y-52800990D01*
X74968334Y-52866454D01*
X74968649Y-52875723D01*
X74939999Y-61269999D01*
X74940000Y-61270000D01*
X80020000Y-61270000D01*
X80020000Y-52480000D01*
X75363952Y-52480000D01*
X75296913Y-52460315D01*
X75251158Y-52407511D01*
X75241214Y-52338353D01*
X75270239Y-52274797D01*
X75276271Y-52268319D01*
X78600271Y-48944319D01*
X78661594Y-48910834D01*
X78687952Y-48908000D01*
X80712072Y-48908000D01*
X80779111Y-48927685D01*
X80817609Y-48966901D01*
X80877288Y-49063656D01*
X81001344Y-49187712D01*
X81150666Y-49279814D01*
X81317203Y-49334999D01*
X81419991Y-49345500D01*
X82500718Y-49345499D01*
X82567755Y-49365184D01*
X82613510Y-49417987D01*
X82624704Y-49467750D01*
X82651518Y-51368751D01*
X82632781Y-51436062D01*
X82580627Y-51482557D01*
X82527530Y-51494500D01*
X81419998Y-51494500D01*
X81419981Y-51494501D01*
X81317203Y-51505000D01*
X81317200Y-51505001D01*
X81150668Y-51560185D01*
X81150663Y-51560187D01*
X81001342Y-51652289D01*
X80877289Y-51776342D01*
X80785187Y-51925663D01*
X80785186Y-51925666D01*
X80730001Y-52092203D01*
X80730001Y-52092204D01*
X80730000Y-52092204D01*
X80719500Y-52194983D01*
X80719500Y-52920001D01*
X80719501Y-52920019D01*
X80730000Y-53022796D01*
X80730001Y-53022799D01*
X80785185Y-53189331D01*
X80785186Y-53189334D01*
X80877288Y-53338656D01*
X81001344Y-53462712D01*
X81150666Y-53554814D01*
X81317203Y-53609999D01*
X81419991Y-53620500D01*
X81430494Y-53620499D01*
X81497532Y-53640179D01*
X81543291Y-53692979D01*
X81554500Y-53744499D01*
X81554500Y-55020500D01*
X81534815Y-55087539D01*
X81482011Y-55133294D01*
X81430500Y-55144500D01*
X81132130Y-55144500D01*
X81132123Y-55144501D01*
X81072516Y-55150908D01*
X80937671Y-55201202D01*
X80937664Y-55201206D01*
X80822455Y-55287452D01*
X80822452Y-55287455D01*
X80736206Y-55402664D01*
X80736202Y-55402671D01*
X80685908Y-55537517D01*
X80679501Y-55597116D01*
X80679500Y-55597135D01*
X80679500Y-56862870D01*
X80679501Y-56862876D01*
X80685908Y-56922483D01*
X80736202Y-57057328D01*
X80736206Y-57057335D01*
X80822452Y-57172544D01*
X80822455Y-57172547D01*
X80937664Y-57258793D01*
X80937671Y-57258797D01*
X81072517Y-57309091D01*
X81072516Y-57309091D01*
X81079444Y-57309835D01*
X81132127Y-57315500D01*
X82613136Y-57315499D01*
X82680175Y-57335184D01*
X82725930Y-57387987D01*
X82737124Y-57437750D01*
X82772190Y-59923751D01*
X82753453Y-59991062D01*
X82701299Y-60037557D01*
X82648202Y-60049500D01*
X81132129Y-60049500D01*
X81132123Y-60049501D01*
X81072516Y-60055908D01*
X80937671Y-60106202D01*
X80937664Y-60106206D01*
X80822455Y-60192452D01*
X80822452Y-60192455D01*
X80736206Y-60307664D01*
X80736202Y-60307671D01*
X80685908Y-60442517D01*
X80679501Y-60502116D01*
X80679500Y-60502135D01*
X80679500Y-62117870D01*
X80679501Y-62117876D01*
X80685908Y-62177483D01*
X80736202Y-62312328D01*
X80736206Y-62312335D01*
X80822452Y-62427544D01*
X80822455Y-62427547D01*
X80937664Y-62513793D01*
X80937671Y-62513797D01*
X81038270Y-62551318D01*
X81094204Y-62593189D01*
X81118621Y-62658653D01*
X81103770Y-62726926D01*
X81054364Y-62776332D01*
X81038270Y-62783682D01*
X80937671Y-62821202D01*
X80937664Y-62821206D01*
X80822455Y-62907452D01*
X80822452Y-62907455D01*
X80736206Y-63022664D01*
X80736202Y-63022671D01*
X80685908Y-63157517D01*
X80679501Y-63217116D01*
X80679500Y-63217135D01*
X80679500Y-64482870D01*
X80679501Y-64482876D01*
X80685908Y-64542483D01*
X80736202Y-64677328D01*
X80736206Y-64677335D01*
X80822452Y-64792544D01*
X80822455Y-64792547D01*
X80937664Y-64878793D01*
X80937671Y-64878797D01*
X81072517Y-64929091D01*
X81072516Y-64929091D01*
X81079444Y-64929835D01*
X81132127Y-64935500D01*
X82720619Y-64935499D01*
X82787658Y-64955184D01*
X82833413Y-65007987D01*
X82844607Y-65057750D01*
X82848221Y-65313935D01*
X82829484Y-65381245D01*
X82777330Y-65427741D01*
X82723923Y-65439684D01*
X54993536Y-65370309D01*
X54926546Y-65350456D01*
X54880923Y-65297538D01*
X54869846Y-65246466D01*
X54846921Y-46755186D01*
X54866523Y-46688126D01*
X54919270Y-46642306D01*
X54988416Y-46632276D01*
X55049959Y-46659491D01*
X55076308Y-46681287D01*
X55080631Y-46685221D01*
X56614319Y-48218910D01*
X56647804Y-48280233D01*
X56650109Y-48318032D01*
X56630468Y-48529998D01*
X56630468Y-48530000D01*
X56650551Y-48746733D01*
X56650551Y-48746735D01*
X56650552Y-48746738D01*
X56706768Y-48944319D01*
X56710120Y-48956099D01*
X56763678Y-49063657D01*
X56807142Y-49150944D01*
X56904630Y-49280040D01*
X56938317Y-49324648D01*
X56938320Y-49324651D01*
X57053213Y-49429389D01*
X57099173Y-49471287D01*
X57284237Y-49585874D01*
X57487206Y-49664504D01*
X57701167Y-49704500D01*
X57701169Y-49704500D01*
X57918831Y-49704500D01*
X57918833Y-49704500D01*
X58132794Y-49664504D01*
X58335763Y-49585874D01*
X58520827Y-49471287D01*
X58681685Y-49324646D01*
X58812858Y-49150944D01*
X58909881Y-48956096D01*
X58969448Y-48746738D01*
X58989532Y-48530000D01*
X58969448Y-48313262D01*
X58909881Y-48103904D01*
X58812858Y-47909056D01*
X58681685Y-47735354D01*
X58681682Y-47735351D01*
X58681679Y-47735348D01*
X58520828Y-47588714D01*
X58520827Y-47588713D01*
X58335763Y-47474126D01*
X58132794Y-47395496D01*
X57918833Y-47355500D01*
X57701167Y-47355500D01*
X57701165Y-47355500D01*
X57612854Y-47372007D01*
X57543339Y-47364975D01*
X57502390Y-47337799D01*
X56161819Y-45997228D01*
X56128334Y-45935905D01*
X56125500Y-45909547D01*
X56125500Y-29830451D01*
X56145185Y-29763412D01*
X56161815Y-29742774D01*
X56942737Y-28961851D01*
X57004058Y-28928368D01*
X57062510Y-28929759D01*
X57101326Y-28940161D01*
X57284814Y-28956213D01*
X57319998Y-28959292D01*
X57320000Y-28959292D01*
X57320002Y-28959292D01*
X57374668Y-28954509D01*
X57538674Y-28940161D01*
X57750703Y-28883347D01*
X57949646Y-28790579D01*
X58129457Y-28664674D01*
X58284674Y-28509457D01*
X58410579Y-28329646D01*
X58503347Y-28130703D01*
X58560161Y-27918674D01*
X58579292Y-27700000D01*
X58560161Y-27481326D01*
X58503347Y-27269297D01*
X58410579Y-27070354D01*
X58410577Y-27070351D01*
X58410576Y-27070349D01*
X58284677Y-26890547D01*
X58284672Y-26890541D01*
X58129458Y-26735327D01*
X58129452Y-26735322D01*
X57949650Y-26609423D01*
X57949642Y-26609419D01*
X57750708Y-26516655D01*
X57750706Y-26516654D01*
X57750703Y-26516653D01*
X57599885Y-26476240D01*
X57538675Y-26459839D01*
X57538668Y-26459838D01*
X57320002Y-26440708D01*
X57319998Y-26440708D01*
X57101331Y-26459838D01*
X57101324Y-26459839D01*
X56978902Y-26492642D01*
X56889297Y-26516653D01*
X56889295Y-26516653D01*
X56889291Y-26516655D01*
X56690357Y-26609419D01*
X56690349Y-26609423D01*
X56510547Y-26735322D01*
X56510541Y-26735327D01*
X56355327Y-26890541D01*
X56355322Y-26890547D01*
X56229423Y-27070349D01*
X56229419Y-27070357D01*
X56136655Y-27269291D01*
X56079839Y-27481324D01*
X56079838Y-27481331D01*
X56060708Y-27699997D01*
X56060708Y-27700002D01*
X56079838Y-27918668D01*
X56079841Y-27918682D01*
X56090239Y-27957490D01*
X56088576Y-28027340D01*
X56058145Y-28077263D01*
X55116208Y-29019199D01*
X55103951Y-29029020D01*
X55104134Y-29029241D01*
X55098123Y-29034213D01*
X55050770Y-29084638D01*
X55036601Y-29098807D01*
X54975276Y-29132289D01*
X54905585Y-29127302D01*
X54849653Y-29085429D01*
X54825239Y-29019963D01*
X54824923Y-29011276D01*
X54824822Y-28929760D01*
X54820153Y-25164105D01*
X54839755Y-25097044D01*
X54892502Y-25051224D01*
X54944104Y-25039954D01*
X82157693Y-25030044D01*
X82224738Y-25049704D01*
G37*
%TD.AperFunction*%
%TD*%
M02*
