%TF.GenerationSoftware,KiCad,Pcbnew,7.0.9*%
%TF.CreationDate,2026-02-19T21:42:20+01:00*%
%TF.ProjectId,esp_home_heat,6573705f-686f-46d6-955f-686561742e6b,rev?*%
%TF.SameCoordinates,Original*%
%TF.FileFunction,Legend,Top*%
%TF.FilePolarity,Positive*%
%FSLAX46Y46*%
G04 Gerber Fmt 4.6, Leading zero omitted, Abs format (unit mm)*
G04 Created by KiCad (PCBNEW 7.0.9) date 2026-02-19 21:42:20*
%MOMM*%
%LPD*%
G01*
G04 APERTURE LIST*
%ADD10C,0.150000*%
%ADD11C,0.120000*%
%ADD12C,0.127000*%
%ADD13C,0.200000*%
G04 APERTURE END LIST*
D10*
X85503810Y-54354819D02*
X85503810Y-53354819D01*
X86551428Y-54259580D02*
X86503809Y-54307200D01*
X86503809Y-54307200D02*
X86360952Y-54354819D01*
X86360952Y-54354819D02*
X86265714Y-54354819D01*
X86265714Y-54354819D02*
X86122857Y-54307200D01*
X86122857Y-54307200D02*
X86027619Y-54211961D01*
X86027619Y-54211961D02*
X85980000Y-54116723D01*
X85980000Y-54116723D02*
X85932381Y-53926247D01*
X85932381Y-53926247D02*
X85932381Y-53783390D01*
X85932381Y-53783390D02*
X85980000Y-53592914D01*
X85980000Y-53592914D02*
X86027619Y-53497676D01*
X86027619Y-53497676D02*
X86122857Y-53402438D01*
X86122857Y-53402438D02*
X86265714Y-53354819D01*
X86265714Y-53354819D02*
X86360952Y-53354819D01*
X86360952Y-53354819D02*
X86503809Y-53402438D01*
X86503809Y-53402438D02*
X86551428Y-53450057D01*
X87503809Y-54354819D02*
X86932381Y-54354819D01*
X87218095Y-54354819D02*
X87218095Y-53354819D01*
X87218095Y-53354819D02*
X87122857Y-53497676D01*
X87122857Y-53497676D02*
X87027619Y-53592914D01*
X87027619Y-53592914D02*
X86932381Y-53640533D01*
X86423333Y-49744819D02*
X86090000Y-49268628D01*
X85851905Y-49744819D02*
X85851905Y-48744819D01*
X85851905Y-48744819D02*
X86232857Y-48744819D01*
X86232857Y-48744819D02*
X86328095Y-48792438D01*
X86328095Y-48792438D02*
X86375714Y-48840057D01*
X86375714Y-48840057D02*
X86423333Y-48935295D01*
X86423333Y-48935295D02*
X86423333Y-49078152D01*
X86423333Y-49078152D02*
X86375714Y-49173390D01*
X86375714Y-49173390D02*
X86328095Y-49221009D01*
X86328095Y-49221009D02*
X86232857Y-49268628D01*
X86232857Y-49268628D02*
X85851905Y-49268628D01*
X87375714Y-49744819D02*
X86804286Y-49744819D01*
X87090000Y-49744819D02*
X87090000Y-48744819D01*
X87090000Y-48744819D02*
X86994762Y-48887676D01*
X86994762Y-48887676D02*
X86899524Y-48982914D01*
X86899524Y-48982914D02*
X86804286Y-49030533D01*
X84630714Y-46789819D02*
X84630714Y-45789819D01*
X84630714Y-45789819D02*
X85011666Y-45789819D01*
X85011666Y-45789819D02*
X85106904Y-45837438D01*
X85106904Y-45837438D02*
X85154523Y-45885057D01*
X85154523Y-45885057D02*
X85202142Y-45980295D01*
X85202142Y-45980295D02*
X85202142Y-46123152D01*
X85202142Y-46123152D02*
X85154523Y-46218390D01*
X85154523Y-46218390D02*
X85106904Y-46266009D01*
X85106904Y-46266009D02*
X85011666Y-46313628D01*
X85011666Y-46313628D02*
X84630714Y-46313628D01*
X85583095Y-46742200D02*
X85725952Y-46789819D01*
X85725952Y-46789819D02*
X85964047Y-46789819D01*
X85964047Y-46789819D02*
X86059285Y-46742200D01*
X86059285Y-46742200D02*
X86106904Y-46694580D01*
X86106904Y-46694580D02*
X86154523Y-46599342D01*
X86154523Y-46599342D02*
X86154523Y-46504104D01*
X86154523Y-46504104D02*
X86106904Y-46408866D01*
X86106904Y-46408866D02*
X86059285Y-46361247D01*
X86059285Y-46361247D02*
X85964047Y-46313628D01*
X85964047Y-46313628D02*
X85773571Y-46266009D01*
X85773571Y-46266009D02*
X85678333Y-46218390D01*
X85678333Y-46218390D02*
X85630714Y-46170771D01*
X85630714Y-46170771D02*
X85583095Y-46075533D01*
X85583095Y-46075533D02*
X85583095Y-45980295D01*
X85583095Y-45980295D02*
X85630714Y-45885057D01*
X85630714Y-45885057D02*
X85678333Y-45837438D01*
X85678333Y-45837438D02*
X85773571Y-45789819D01*
X85773571Y-45789819D02*
X86011666Y-45789819D01*
X86011666Y-45789819D02*
X86154523Y-45837438D01*
X87106904Y-46789819D02*
X86535476Y-46789819D01*
X86821190Y-46789819D02*
X86821190Y-45789819D01*
X86821190Y-45789819D02*
X86725952Y-45932676D01*
X86725952Y-45932676D02*
X86630714Y-46027914D01*
X86630714Y-46027914D02*
X86535476Y-46075533D01*
X95551009Y-48473333D02*
X95551009Y-48806666D01*
X96074819Y-48806666D02*
X95074819Y-48806666D01*
X95074819Y-48806666D02*
X95074819Y-48330476D01*
X96074819Y-47425714D02*
X96074819Y-47997142D01*
X96074819Y-47711428D02*
X95074819Y-47711428D01*
X95074819Y-47711428D02*
X95217676Y-47806666D01*
X95217676Y-47806666D02*
X95312914Y-47901904D01*
X95312914Y-47901904D02*
X95360533Y-47997142D01*
X64048095Y-57044819D02*
X64048095Y-57854342D01*
X64048095Y-57854342D02*
X64095714Y-57949580D01*
X64095714Y-57949580D02*
X64143333Y-57997200D01*
X64143333Y-57997200D02*
X64238571Y-58044819D01*
X64238571Y-58044819D02*
X64429047Y-58044819D01*
X64429047Y-58044819D02*
X64524285Y-57997200D01*
X64524285Y-57997200D02*
X64571904Y-57949580D01*
X64571904Y-57949580D02*
X64619523Y-57854342D01*
X64619523Y-57854342D02*
X64619523Y-57044819D01*
X65619523Y-58044819D02*
X65048095Y-58044819D01*
X65333809Y-58044819D02*
X65333809Y-57044819D01*
X65333809Y-57044819D02*
X65238571Y-57187676D01*
X65238571Y-57187676D02*
X65143333Y-57282914D01*
X65143333Y-57282914D02*
X65048095Y-57330533D01*
X90964819Y-37138094D02*
X89964819Y-37138094D01*
X89964819Y-37138094D02*
X89964819Y-36899999D01*
X89964819Y-36899999D02*
X90012438Y-36757142D01*
X90012438Y-36757142D02*
X90107676Y-36661904D01*
X90107676Y-36661904D02*
X90202914Y-36614285D01*
X90202914Y-36614285D02*
X90393390Y-36566666D01*
X90393390Y-36566666D02*
X90536247Y-36566666D01*
X90536247Y-36566666D02*
X90726723Y-36614285D01*
X90726723Y-36614285D02*
X90821961Y-36661904D01*
X90821961Y-36661904D02*
X90917200Y-36757142D01*
X90917200Y-36757142D02*
X90964819Y-36899999D01*
X90964819Y-36899999D02*
X90964819Y-37138094D01*
X90964819Y-35614285D02*
X90964819Y-36185713D01*
X90964819Y-35899999D02*
X89964819Y-35899999D01*
X89964819Y-35899999D02*
X90107676Y-35995237D01*
X90107676Y-35995237D02*
X90202914Y-36090475D01*
X90202914Y-36090475D02*
X90250533Y-36185713D01*
X96284819Y-36681904D02*
X95284819Y-36681904D01*
X96284819Y-36110476D02*
X95713390Y-36539047D01*
X95284819Y-36110476D02*
X95856247Y-36681904D01*
X105136666Y-25694819D02*
X105136666Y-26409104D01*
X105136666Y-26409104D02*
X105089047Y-26551961D01*
X105089047Y-26551961D02*
X104993809Y-26647200D01*
X104993809Y-26647200D02*
X104850952Y-26694819D01*
X104850952Y-26694819D02*
X104755714Y-26694819D01*
X106136666Y-26694819D02*
X105565238Y-26694819D01*
X105850952Y-26694819D02*
X105850952Y-25694819D01*
X105850952Y-25694819D02*
X105755714Y-25837676D01*
X105755714Y-25837676D02*
X105660476Y-25932914D01*
X105660476Y-25932914D02*
X105565238Y-25980533D01*
D11*
%TO.C,IC1*%
X84030000Y-54900000D02*
X84030000Y-65180000D01*
X84030000Y-65180000D02*
X88930000Y-65180000D01*
X85480000Y-54900000D02*
X84030000Y-54900000D01*
X88930000Y-54900000D02*
X87480000Y-54900000D01*
X88930000Y-65180000D02*
X88930000Y-54900000D01*
X85480000Y-54900000D02*
G75*
G03*
X87480000Y-54900000I1000000J0D01*
G01*
%TO.C,R1*%
X84630000Y-49033748D02*
X84630000Y-51806252D01*
X81210000Y-49033748D02*
X81210000Y-51806252D01*
D12*
%TO.C,PS1*%
X89020000Y-45400000D02*
X89020000Y-25400000D01*
X89020000Y-25400000D02*
X55020000Y-25400000D01*
X55020000Y-45400000D02*
X89020000Y-45400000D01*
X55020000Y-25400000D02*
X55020000Y-45400000D01*
D13*
X90570200Y-38100000D02*
G75*
G03*
X90570200Y-38100000I-100000J0D01*
G01*
D11*
%TO.C,F1*%
X96710000Y-59500000D02*
X96710000Y-36780000D01*
X99870000Y-59500000D02*
X96710000Y-59500000D01*
X106530000Y-59500000D02*
X103370000Y-59500000D01*
X106530000Y-59500000D02*
X106530000Y-36780000D01*
X99870000Y-36780000D02*
X96710000Y-36780000D01*
X106530000Y-36780000D02*
X103370000Y-36780000D01*
D12*
%TO.C,U1*%
X79060000Y-65150000D02*
X56360000Y-65150000D01*
X55060000Y-60650000D02*
X56360000Y-60650000D01*
X56360000Y-60650000D02*
X56360000Y-65150000D01*
X55060000Y-51650000D02*
X55060000Y-60650000D01*
X55060000Y-51650000D02*
X56360000Y-51650000D01*
X56360000Y-47150000D02*
X56360000Y-51650000D01*
X79060000Y-47150000D02*
X79060000Y-65150000D01*
X79060000Y-47150000D02*
X56360000Y-47150000D01*
D11*
%TO.C,D1*%
X93730000Y-37760000D02*
X93730000Y-38780000D01*
X95200000Y-38780000D02*
X92260000Y-38780000D01*
X92260000Y-38780000D02*
X92260000Y-44220000D01*
X95200000Y-39560000D02*
X92260000Y-39560000D01*
X95200000Y-39680000D02*
X92260000Y-39680000D01*
X95200000Y-39800000D02*
X92260000Y-39800000D01*
X95200000Y-44220000D02*
X95200000Y-38780000D01*
X92260000Y-44220000D02*
X95200000Y-44220000D01*
X93730000Y-45240000D02*
X93730000Y-44220000D01*
%TO.C,J1*%
X91190000Y-25390000D02*
X106430000Y-25390000D01*
X91190000Y-31740000D02*
X106430000Y-31740000D01*
X91190000Y-33010000D02*
X91190000Y-25390000D01*
X91190000Y-33010000D02*
X106430000Y-33010000D01*
X106430000Y-33010000D02*
X106430000Y-25390000D01*
%TD*%
M02*
