%TF.GenerationSoftware,KiCad,Pcbnew,7.0.9*%
%TF.CreationDate,2026-02-19T21:42:20+01:00*%
%TF.ProjectId,esp_home_heat,6573705f-686f-46d6-955f-686561742e6b,rev?*%
%TF.SameCoordinates,Original*%
%TF.FileFunction,Soldermask,Top*%
%TF.FilePolarity,Negative*%
%FSLAX46Y46*%
G04 Gerber Fmt 4.6, Leading zero omitted, Abs format (unit mm)*
G04 Created by KiCad (PCBNEW 7.0.9) date 2026-02-19 21:42:20*
%MOMM*%
%LPD*%
G01*
G04 APERTURE LIST*
G04 Aperture macros list*
%AMRoundRect*
0 Rectangle with rounded corners*
0 $1 Rounding radius*
0 $2 $3 $4 $5 $6 $7 $8 $9 X,Y pos of 4 corners*
0 Add a 4 corners polygon primitive as box body*
4,1,4,$2,$3,$4,$5,$6,$7,$8,$9,$2,$3,0*
0 Add four circle primitives for the rounded corners*
1,1,$1+$1,$2,$3*
1,1,$1+$1,$4,$5*
1,1,$1+$1,$6,$7*
1,1,$1+$1,$8,$9*
0 Add four rect primitives between the rounded corners*
20,1,$1+$1,$2,$3,$4,$5,0*
20,1,$1+$1,$4,$5,$6,$7,0*
20,1,$1+$1,$6,$7,$8,$9,0*
20,1,$1+$1,$8,$9,$2,$3,0*%
G04 Aperture macros list end*
%ADD10C,3.200000*%
%ADD11R,2.000000X1.170000*%
%ADD12R,2.000000X1.520000*%
%ADD13RoundRect,0.250000X-1.450000X0.312500X-1.450000X-0.312500X1.450000X-0.312500X1.450000X0.312500X0*%
%ADD14RoundRect,0.102000X0.754000X0.754000X-0.754000X0.754000X-0.754000X-0.754000X0.754000X-0.754000X0*%
%ADD15C,1.712000*%
%ADD16C,2.700000*%
%ADD17C,3.000000*%
%ADD18C,1.552000*%
%ADD19R,2.200000X2.200000*%
%ADD20O,2.200000X2.200000*%
%ADD21R,3.000000X3.000000*%
G04 APERTURE END LIST*
D10*
%TO.C,REF\u002A\u002A*%
X110070000Y-24210000D03*
%TD*%
D11*
%TO.C,IC1*%
X82180000Y-56230000D03*
D12*
X82180000Y-58770000D03*
X82180000Y-61310000D03*
D11*
X82180000Y-63850000D03*
X90780000Y-63850000D03*
D12*
X90780000Y-61310000D03*
X90780000Y-58770000D03*
D11*
X90780000Y-56230000D03*
%TD*%
D13*
%TO.C,R1*%
X82920000Y-48282500D03*
X82920000Y-52557500D03*
%TD*%
D10*
%TO.C,REF\u002A\u002A*%
X110070000Y-64550000D03*
%TD*%
D14*
%TO.C,PS1*%
X86720000Y-37900000D03*
D15*
X86720000Y-32900000D03*
X57320000Y-43100000D03*
X57320000Y-27700000D03*
%TD*%
D10*
%TO.C,REF\u002A\u002A*%
X51220000Y-64640000D03*
%TD*%
D16*
%TO.C,F1*%
X101620000Y-48140000D03*
D17*
X101620000Y-59390000D03*
X101620000Y-36890000D03*
%TD*%
D10*
%TO.C,REF\u002A\u002A*%
X51310000Y-24260000D03*
%TD*%
D18*
%TO.C,U1*%
X75590000Y-48530000D03*
X73050000Y-48530000D03*
X70510000Y-48530000D03*
X67970000Y-48530000D03*
X62890000Y-48530000D03*
X65430000Y-48530000D03*
X57810000Y-63770000D03*
X57810000Y-48530000D03*
X60350000Y-63770000D03*
X62890000Y-63770000D03*
X65430000Y-63770000D03*
X67970000Y-63770000D03*
X70510000Y-63770000D03*
X73050000Y-63770000D03*
X75590000Y-63770000D03*
X60350000Y-48530000D03*
%TD*%
D19*
%TO.C,D1*%
X93730000Y-36420000D03*
D20*
X93730000Y-46580000D03*
%TD*%
D21*
%TO.C,J1*%
X93730000Y-29200000D03*
D17*
X98810000Y-29200000D03*
X103890000Y-29200000D03*
%TD*%
M02*
